# xmcd
#
# Track frame offsets:
#	150
#	14214
#	29949
#	43437
#
# Disc length: 765 seconds
#
# Revision: 1
# Processed by: cddbd v1.4PL0 Copyright (c) Steve Scherf et al.
# Submitted via: EasyCDDAExtractor 5.1.0
#
DISCID=3e02fb04
DTITLE=eXtatic - by ZaKu
DYEAR=1900
DGENRE=Electronic
TTITLE0=Sonic Force (Re-edit 2002)
TTITLE1=Breakin' Nation
TTITLE2=Don't stop electric boogie
TTITLE3=The Panic (2002 Short)
EXTD=ID3G: 27\n
EXTT0=
EXTT1=
EXTT2=
EXTT3=
PLAYORDER=
